<svg xmlns="http://www.w3.org/2000/svg" xmlns:xlink="http://www.w3.org/1999/xlink" width="375" height="812" viewBox="0 0 375 812">
  <defs>
    <clipPath id="clip-path">
      <rect width="375" height="44" fill="none"/>
    </clipPath>
    <clipPath id="clip-path-2">
      <rect width="13.975" height="13.475" fill="none"/>
    </clipPath>
    <clipPath id="clip-path-3">
      <rect width="375" height="34" fill="none"/>
    </clipPath>
    <clipPath id="clip-background">
      <rect width="375" height="812"/>
    </clipPath>
  </defs>
  <g id="background" clip-path="url(#clip-background)">
    <rect width="375" height="812" fill="#fff"/>
    <text id="Graphic_Novels" data-name="Graphic Novels" transform="translate(220 633)" fill="#fff" font-size="15" font-family="SegoeUI-Bold, Segoe UI" font-weight="700"><tspan x="3.691" y="16">Graphic Novels</tspan></text>
    <text id="Biography" transform="translate(33 234)" fill="#fff" font-size="15" font-family="SegoeUI-Bold, Segoe UI" font-weight="700"><tspan x="20.61" y="16">Biography</tspan></text>
    <text id="Children" transform="translate(42 411)" fill="#fff" font-size="15" font-family="SegoeUI-Bold, Segoe UI" font-weight="700"><tspan x="27.348" y="16">Children</tspan></text>
    <text id="Cookery" transform="translate(220 411)" fill="#fff" font-size="15" font-family="SegoeUI-Bold, Segoe UI" font-weight="700"><tspan x="27.685" y="16">Cookery</tspan></text>
    <g id="OS_Status_OnLight" data-name="OS/Status/OnLight" transform="translate(-9 45)" clip-path="url(#clip-path)">
      <rect id="_-boundary" data-name="-boundary" width="375" height="44" fill="#fff" opacity="0"/>
      <g id="time" transform="translate(20.394 14)">
        <text id="time-2" data-name="time" font-size="15" font-family="SegoeUI-Semibold, Segoe UI" font-weight="600" letter-spacing="-0.011em"><tspan x="13.914" y="16">9:41</tspan></text>
      </g>
      <g id="container" transform="translate(293.5 15)">
        <g id="battery" transform="translate(43 0.6)">
          <path id="Rectangle" d="M3.589,11.5a4.073,4.073,0,0,1-2.156-.374A2.532,2.532,0,0,1,.374,10.067,4.065,4.065,0,0,1,0,7.911V3.589A4.065,4.065,0,0,1,.374,1.433,2.532,2.532,0,0,1,1.433.374,4.065,4.065,0,0,1,3.589,0H18.41a4.066,4.066,0,0,1,2.157.374,2.532,2.532,0,0,1,1.058,1.058A4.08,4.08,0,0,1,22,3.589V7.911a4.08,4.08,0,0,1-.374,2.156,2.532,2.532,0,0,1-1.058,1.058,4.077,4.077,0,0,1-2.157.374ZM1.9,1.256a1.535,1.535,0,0,0-.649.649A3.322,3.322,0,0,0,1,3.589V7.911A3.322,3.322,0,0,0,1.256,9.6a1.523,1.523,0,0,0,.649.648,3.309,3.309,0,0,0,1.685.257H18.41a3.311,3.311,0,0,0,1.686-.257,1.546,1.546,0,0,0,.648-.648A3.322,3.322,0,0,0,21,7.911V3.589A3.322,3.322,0,0,0,20.744,1.9a1.548,1.548,0,0,0-.648-.649A3.324,3.324,0,0,0,18.41,1H3.589A3.322,3.322,0,0,0,1.9,1.256ZM23,3.69s1.5.763,1.5,2-1.5,2-1.5,2Z" transform="translate(0 0.56)" fill="rgba(0,0,0,0.36)"/>
          <rect id="Rectangle-2" data-name="Rectangle" width="18" height="7.667" rx="1.6" transform="translate(2 2.477)"/>
        </g>
        <path id="combinedShape" d="M15.3,10.7a1.2,1.2,0,0,1-1.2-1.2V1.2A1.2,1.2,0,0,1,15.3,0h.6a1.2,1.2,0,0,1,1.2,1.2V9.5a1.2,1.2,0,0,1-1.2,1.2Zm-4.7,0A1.2,1.2,0,0,1,9.4,9.5V3.6a1.2,1.2,0,0,1,1.2-1.2h.6a1.2,1.2,0,0,1,1.2,1.2V9.5a1.2,1.2,0,0,1-1.2,1.2ZM6,10.7A1.2,1.2,0,0,1,4.8,9.5V5.9A1.2,1.2,0,0,1,6,4.7h.6A1.2,1.2,0,0,1,7.8,5.9V9.5a1.2,1.2,0,0,1-1.2,1.2Zm-4.8,0A1.2,1.2,0,0,1,0,9.5V7.9A1.2,1.2,0,0,1,1.2,6.7h.6A1.2,1.2,0,0,1,3,7.9V9.5a1.2,1.2,0,0,1-1.2,1.2Z" transform="translate(0.5 1.6)"/>
        <path id="wifi" d="M7.7,11.057a.315.315,0,0,1-.223-.094L5.462,8.932a.317.317,0,0,1,.01-.461,3.451,3.451,0,0,1,4.457,0,.312.312,0,0,1,.1.228.319.319,0,0,1-.095.233L7.924,10.964A.315.315,0,0,1,7.7,11.057Zm3.537-3.567a.307.307,0,0,1-.215-.086,4.945,4.945,0,0,0-6.641,0A.311.311,0,0,1,3.945,7.4L2.78,6.222a.325.325,0,0,1,0-.463,7.22,7.22,0,0,1,9.834,0,.325.325,0,0,1,0,.463L11.459,7.4A.312.312,0,0,1,11.237,7.491ZM13.92,4.783a.31.31,0,0,1-.217-.088,8.714,8.714,0,0,0-12.006,0,.311.311,0,0,1-.218.088.306.306,0,0,1-.22-.092L.094,3.515a.325.325,0,0,1,0-.46,10.989,10.989,0,0,1,15.206,0,.324.324,0,0,1,0,.46L14.14,4.691A.306.306,0,0,1,13.92,4.783Z" transform="translate(22.6 1.4)"/>
      </g>
    </g>
    <text id="Our_Top_Picks" data-name="Our Top Picks" transform="translate(7 149)" fill="#fff" font-size="24" font-family="SegoeUI, Segoe UI"><tspan x="0" y="26">Our Top Picks</tspan></text>
    <g id="Component_18" data-name="Component 18" transform="translate(25 101.5)" clip-path="url(#clip-path-2)">
      <g id="Ellipse_14" data-name="Ellipse 14" fill="none" stroke="#212121" stroke-width="2">
        <circle cx="6.087" cy="6.087" r="6.087" stroke="none"/>
        <circle cx="6.087" cy="6.087" r="5.087" fill="none"/>
      </g>
      <rect id="Rectangle_40" data-name="Rectangle 40" width="5" height="2" rx="0.5" transform="translate(10.439 8.525) rotate(45)" fill="#212121"/>
    </g>
    <g id="OS_HomeIndicator_OnLgiht" data-name="OS/HomeIndicator/OnLgiht" transform="translate(0 776)" clip-path="url(#clip-path-3)">
      <rect id="_-boundary-2" data-name="-boundary" width="375" height="34" fill="#fff" opacity="0"/>
      <rect id="indicator" width="135" height="5" rx="2.5" transform="translate(120 20)"/>
    </g>
    <path id="Path_583" data-name="Path 583" d="M2012.452,263.357s120.951-30.67,245.826-11.077,198.963-18.691,198.963-18.691,22.2-238.464,18.729-241.914-248.412-21.851-351.108-26.452-108.247-12.651-112.41,0,11.8,173.662,12.49,185.163S2012.452,263.357,2012.452,263.357Z" transform="translate(-2057 -82.822)" fill="#3da4e9"/>
    <path id="Path_585" data-name="Path 585" d="M2418.541,263.357s-106.062-30.67-215.564-11.077-174.471-18.691-174.471-18.691S2009.041-4.875,2012.083-8.325s217.832-21.851,307.886-26.452,94.921-12.651,98.572,0-10.344,173.662-10.953,185.163S2418.541,263.357,2418.541,263.357Z" transform="translate(-2032.387 -102.822)" fill="#fff" opacity="0.24"/>
  </g>
</svg>
