<?xml version="1.0"?>
<svg xmlns="http://www.w3.org/2000/svg" viewBox="0 0 64 64" width="512" height="512"><g id="outline"><path d="M52.947,20.527A2.98,2.98,0,0,0,53,20c0-3.673-6.749-5.944-14.785-6.709L33.661,7.5a3,3,0,1,0-3.322,0l-4.554,5.8C17.749,14.056,11,16.327,11,20a2.98,2.98,0,0,0,.053.527c.514,5.05,8.3,10.642,18.629,11.386l-8.64,28.8a1,1,0,0,0,1.916.574l.989-3.3c.018,0,.035.008.053.008H40.056l.986,3.287A1,1,0,0,0,42,62a1.023,1.023,0,0,0,.287-.042,1,1,0,0,0,.671-1.245l-8.64-28.8C44.644,31.169,52.433,25.577,52.947,20.527ZM35.516,13.093q-1.251-.066-2.516-.085V9.891ZM32,4a1,1,0,1,1-1,1A1,1,0,0,1,32,4ZM31,9.891v3.117q-1.263.018-2.516.085ZM31.744,32h.512l1.461,4.869-4.9,4.905Zm-4.2,14h6.9L24.9,54.807ZM39.456,56h-12.9l10.1-9.324ZM34.369,39.045,35.856,44H29.414ZM32,30c-7.183,0-13.056-2.54-16.287-5.421C19.765,26.178,25.9,27,32,27s12.235-.822,16.287-2.421C45.056,27.46,39.183,30,32,30Zm0-5c-11.772,0-19-2.912-19-5,0-1.565,4.063-3.594,11.059-4.511l-3.845,4.893,1.572,1.236,5.037-6.411q1.971-.158,4.177-.192v6.2A6.629,6.629,0,0,1,28.6,20.2l-1.2,1.6a8.256,8.256,0,0,0,4.73,1.523A7.321,7.321,0,0,0,36.6,21.8l-1.2-1.6A5.488,5.488,0,0,1,33,21.258V15.015q2.2.033,4.177.192l5.037,6.411,1.572-1.236-3.845-4.893C46.937,16.406,51,18.435,51,20,51,22.088,43.772,25,32,25Z"/><path d="M54.257,15.669c.159.177,3.853,4.38,0,8.662l1.486,1.338a8.323,8.323,0,0,0,0-11.338Z"/><path d="M56.313,27.273l1.374,1.454c2.957-2.792,4.406-5.8,4.309-8.946-.156-4.993-4.184-8.406-4.356-8.55l-1.28,1.538c.035.029,3.509,2.969,3.637,7.074C60.076,22.391,58.836,24.891,56.313,27.273Z"/><path d="M8.257,14.331a8.323,8.323,0,0,0,0,11.338l1.486-1.338c-3.828-4.254-.156-8.486,0-8.664L9,15Z"/><path d="M6.36,11.231c-.172.144-4.2,3.557-4.356,8.55-.1,3.144,1.352,6.154,4.309,8.946l1.374-1.454C5.168,24.9,3.929,22.4,4,19.858c.119-4.087,3.6-7.061,3.639-7.091L7,12Z"/></g></svg>
