<svg height="512" viewBox="0 0 512 512" width="512" xmlns="http://www.w3.org/2000/svg"><g id="Out_line" data-name="Out line"><path d="m456 96h-136v16h136a24.0275 24.0275 0 0 1 24 24v232h-16v-224a16.01833 16.01833 0 0 0 -16-16h-128v16h128v224h-384.00037l-.00988-223.99951.01025-.00049v-16a16.01833 16.01833 0 0 0 -16 16v224h-16v-232a24.0275 24.0275 0 0 1 24-24h8v-16h-8a40.04521 40.04521 0 0 0 -40 40v256a40.04521 40.04521 0 0 0 40 40h160v24a24.02687 24.02687 0 0 1 -24 24 8 8 0 0 0 0 16h128a8 8 0 0 0 0-16 24.02687 24.02687 0 0 1 -24-24v-24h160a40.04521 40.04521 0 0 0 40-40v-256a40.04521 40.04521 0 0 0 -40-40zm-167.981 384h-64.038a39.7957 39.7957 0 0 0 8.019-24v-24h48v24a39.7957 39.7957 0 0 0 8.019 24zm167.981-64h-400a24.0275 24.0275 0 0 1 -24-24v-8h448v8a24.0275 24.0275 0 0 1 -24 24z"/><circle cx="256" cy="400" r="8"/><path d="m96 32h128v56a7.99977 7.99977 0 0 0 8 8h56v96h16v-104a7.99877 7.99877 0 0 0 -2.34326-5.65674l-64-64a7.99877 7.99877 0 0 0 -5.65674-2.34326h-144a7.99977 7.99977 0 0 0 -8 8v288h16zm144 11.31348 36.68652 36.68652h-36.68652z"/><path d="m112 48h32v16h-32z"/><path d="m112 80h32v16h-32z"/><path d="m128 112h48v16h-48z"/><path d="m192 112h80v16h-80z"/><path d="m112 144h48v16h-48z"/><path d="m176 144h48v16h-48z"/><path d="m240 144h32v16h-32z"/><path d="m112 176h96v16h-96z"/><path d="m224 176h48v16h-48z"/><path d="m112 208h64v16h-64z"/><path d="m120 288a7.99977 7.99977 0 0 0 -8 8v48a7.99977 7.99977 0 0 0 8 8h32a7.99977 7.99977 0 0 0 8-8v-48a7.99977 7.99977 0 0 0 -8-8zm24 48h-16v-32h16z"/><path d="m176 352h32a7.99977 7.99977 0 0 0 8-8v-72a7.99977 7.99977 0 0 0 -8-8h-32a7.99977 7.99977 0 0 0 -8 8v72a7.99977 7.99977 0 0 0 8 8zm8-72h16v56h-16z"/><path d="m232 352h32a7.99977 7.99977 0 0 0 8-8v-96a7.99977 7.99977 0 0 0 -8-8h-32a7.99977 7.99977 0 0 0 -8 8v96a7.99977 7.99977 0 0 0 8 8zm8-96h16v80h-16z"/><path d="m360 328a72 72 0 1 0 -72-72 72.08124 72.08124 0 0 0 72 72zm-33.51935-27.16724 33.51935-33.51928 33.51935 33.51928a55.8891 55.8891 0 0 1 -67.0387 0zm78.35217-11.31347-33.51934-33.51929 33.51934-33.51929a55.88916 55.88916 0 0 1 0 67.03858zm-44.83282-89.51929a55.70781 55.70781 0 0 1 33.51935 11.16724l-78.35217 78.35205a55.97231 55.97231 0 0 1 44.83282-89.51929z"/></g></svg>