<svg id="Layer_3" enable-background="new 0 0 64 64" height="512" viewBox="0 0 64 64" width="512" xmlns="http://www.w3.org/2000/svg"><g><path d="m62 55h-7v-49c0-2.757-2.243-5-5-5h-30c-2.757 0-5 2.243-5 5v2c0 .552.448 1 1 1h7v12h-19c-1.654 0-3 1.346-3 3v30c0 1.654 1.346 3 3 3h19v1c0 2.757 2.243 5 5 5h30c2.757 0 5-2.243 5-5v-2c0-.552-.448-1-1-1zm-45-49c0-1.654 1.346-3 3-3h26.002c-.628.836-1.002 1.875-1.002 3v1h-28zm-14 48v-30c0-.551.449-1 1-1h22c.551 0 1 .449 1 1v30c0 .551-.449 1-1 1h-22c-.551 0-1-.449-1-1zm28 2v2c0 1.654-1.346 3-3 3s-3-1.346-3-3v-1h1c1.654 0 3-1.346 3-3v-30c0-1.654-1.346-3-3-3h-1v-12h21c.552 0 1-.448 1-1v-2c0-1.654 1.346-3 3-3s3 1.346 3 3v49h-21c-.552 0-1 .448-1 1zm30 2c0 1.654-1.346 3-3 3h-26.002c.628-.836 1.002-1.875 1.002-3v-1h28z"/><path d="m5 32h20c.552 0 1-.448 1-1v-6c0-.552-.448-1-1-1h-20c-.552 0-1 .448-1 1v6c0 .552.448 1 1 1zm1-6h18v4h-18z"/><path d="m9 34h-4c-.552 0-1 .448-1 1v4c0 .552.448 1 1 1h4c.552 0 1-.448 1-1v-4c0-.552-.448-1-1-1zm-1 4h-2v-2h2z"/><path d="m17 34h-4c-.552 0-1 .448-1 1v4c0 .552.448 1 1 1h4c.552 0 1-.448 1-1v-4c0-.552-.448-1-1-1zm-1 4h-2v-2h2z"/><path d="m25 34h-4c-.552 0-1 .448-1 1v4c0 .552.448 1 1 1h4c.552 0 1-.448 1-1v-4c0-.552-.448-1-1-1zm-1 4h-2v-2h2z"/><path d="m9 41h-4c-.552 0-1 .448-1 1v4c0 .552.448 1 1 1h4c.552 0 1-.448 1-1v-4c0-.552-.448-1-1-1zm-1 4h-2v-2h2z"/><path d="m17 41h-4c-.552 0-1 .448-1 1v4c0 .552.448 1 1 1h4c.552 0 1-.448 1-1v-4c0-.552-.448-1-1-1zm-1 4h-2v-2h2z"/><path d="m25 41h-4c-.552 0-1 .448-1 1v4c0 .552.448 1 1 1h4c.552 0 1-.448 1-1v-4c0-.552-.448-1-1-1zm-1 4h-2v-2h2z"/><path d="m9 48h-4c-.552 0-1 .448-1 1v4c0 .552.448 1 1 1h4c.552 0 1-.448 1-1v-4c0-.552-.448-1-1-1zm-1 4h-2v-2h2z"/><path d="m17 48h-4c-.552 0-1 .448-1 1v4c0 .552.448 1 1 1h4c.552 0 1-.448 1-1v-4c0-.552-.448-1-1-1zm-1 4h-2v-2h2z"/><path d="m26 49c0-.552-.448-1-1-1h-4c-.552 0-1 .448-1 1v4c0 .552.448 1 1 1h4c.552 0 1-.448 1-1zm-2 3h-2v-2h2z"/><path d="m40 31c4.962 0 9-4.038 9-9s-4.038-9-9-9-9 4.038-9 9 4.038 9 9 9zm7-9c0 3.519-2.613 6.432-6 6.92v-1.104c1.161-.414 2-1.514 2-2.816v-1c0-1.654-1.346-3-3-3-.551 0-1-.449-1-1v-1c0-.551.449-1 1-1s1 .449 1 1v1h2v-1c0-1.302-.839-2.402-2-2.816v-1.104c3.387.488 6 3.401 6 6.92zm-8-6.92v1.104c-1.161.414-2 1.514-2 2.816v1c0 1.654 1.346 3 3 3 .551 0 1 .449 1 1v1c0 .551-.449 1-1 1s-1-.449-1-1v-1h-2v1c0 1.302.839 2.402 2 2.816v1.104c-3.387-.488-6-3.401-6-6.92s2.613-6.432 6-6.92z"/><path d="m40 51c4.962 0 9-4.038 9-9s-4.038-9-9-9-9 4.038-9 9 4.038 9 9 9zm7-9c0 3.519-2.613 6.432-6 6.92v-1.104c1.161-.414 2-1.514 2-2.816v-1c0-1.654-1.346-3-3-3-.551 0-1-.449-1-1v-1c0-.551.449-1 1-1s1 .449 1 1v1h2v-1c0-1.302-.839-2.402-2-2.816v-1.104c3.387.488 6 3.401 6 6.92zm-8-6.92v1.104c-1.161.414-2 1.514-2 2.816v1c0 1.654 1.346 3 3 3 .551 0 1 .449 1 1v1c0 .551-.449 1-1 1s-1-.449-1-1v-1h-2v1c0 1.302.839 2.402 2 2.816v1.104c-3.387-.488-6-3.401-6-6.92s2.613-6.432 6-6.92z"/></g></svg>